# xmcd CD database file
#
# Track frame offsets:
#	150
#	17415
#	32680
#	48301
#	67481
#	80606
#	92686
#	102365
#	115690
#	122446
#	136114
#	148846
#	166307
#
# Disc length: 2223 seconds
#
# Revision: 1
# Processed by: cddbd v1.5.1PL0 Copyright (c) Steve Scherf et al.
# Submitted via: CDex 1.51
#
DISCID=aa08ad0d
DTITLE=Pino Daniele - 1996 - Terra Mia
DYEAR=1996
DGENRE=Blues
TTITLE0=Napule è
TTITLE1=Na Tazzulella 'e cafè
TTITLE2=Ce sta chi ce penza
TTITLE3=Suonno d'ajere
TTITLE4=Maronna mia
TTITLE5=Saglie, saglie
TTITLE6=Terra mia
TTITLE7=Che calore
TTITLE8=Chi po dicere
TTITLE9=Furtunato
TTITLE10=Cammina cammina
TTITLE11='O padrone
TTITLE12=Libertà
EXTD=YEAR: 1996
EXTT0=
EXTT1=
EXTT2=
EXTT3=
EXTT4=
EXTT5=
EXTT6=
EXTT7=
EXTT8=
EXTT9=
EXTT10=
EXTT11=
EXTT12=
PLAYORDER=
